<?xml version="1.0" encoding="UTF-8"?>
<svg version="1.1" xmlns="http://www.w3.org/2000/svg" width="1200" height="1200">
<path d="M0 0 C1.43676199 0.1794088 2.87361434 0.35809516 4.31054688 0.53613281 C73.01474685 9.13531979 139.03386877 29.09965971 201 60 C202.0297998 60.51288574 203.05959961 61.02577148 204.12060547 61.55419922 C243.41932336 81.25574362 280.2980658 105.77524691 314 134 C314.75676025 134.62938477 314.75676025 134.62938477 315.52880859 135.27148438 C323.0571868 141.53560714 330.36754315 147.99079033 337.54248047 154.65576172 C338.94599244 155.95019001 340.36529883 157.22742854 341.78515625 158.50390625 C348.13647937 164.2262125 354.25716539 170.15250185 360.3125 176.1875 C361.06547363 176.93588135 361.81844727 177.6842627 362.59423828 178.45532227 C366.69414407 182.5665688 370.62271248 186.76768441 374.41186523 191.16674805 C376.67135871 193.7749781 379.02293458 196.28738472 381.375 198.8125 C386.49000206 204.35659827 391.28724722 210.10905902 396 216 C396.91076019 217.11905814 397.82225476 218.23751888 398.734375 219.35546875 C424.32457923 250.84383488 446.17534909 285.07929882 465 321 C465.49064941 321.93602051 465.98129883 322.87204102 466.48681641 323.83642578 C488.7436485 366.62020937 504.76032766 412.16497601 516 459 C516.27440918 460.13808105 516.54881836 461.27616211 516.83154297 462.44873047 C521.699097 482.96951949 524.9468918 503.75297666 527.69146729 524.65124512 C527.88676696 526.13799532 528.08435416 527.62444835 528.28509521 529.11047363 C534.23711328 573.31886005 533.79660399 621.80790206 528 666 C527.82050118 667.4352858 527.64181873 668.87067389 527.46386719 670.30615234 C518.652634 740.70018601 497.62932619 807.58240628 466 871 C465.52062988 871.96276855 465.04125977 872.92553711 464.54736328 873.91748047 C458.09657481 886.77956753 450.87355406 899.10888628 443.3828125 911.390625 C440.46028161 916.19321362 437.67897688 921.05777629 435 926 C434.34 926 433.68 926 433 926 C432.77570313 926.6703125 432.55140625 927.340625 432.3203125 928.03125 C430.60918978 931.87874488 428.32480098 935.08827716 425.875 938.5 C425.09515747 939.59465576 425.09515747 939.59465576 424.29956055 940.71142578 C414.66087616 954.14050907 404.64925521 967.35400944 394 980 C393.14555958 981.02841846 392.29140922 982.05707794 391.4375 983.0859375 C385.32582141 990.41534419 378.96132307 997.468086 372.44677734 1004.43994141 C370.20910053 1006.85282613 368.01628049 1009.3061708 365.8125 1011.75 C361.10029542 1016.89370006 356.23618574 1021.87118962 351.3125 1026.8125 C350.61165283 1027.51793945 349.91080566 1028.22337891 349.1887207 1028.95019531 C345.2022121 1032.92498027 341.11395166 1036.71817381 336.85083008 1040.39428711 C334.23802246 1042.66106401 331.71864106 1045.01732176 329.1875 1047.375 C323.64340173 1052.49000206 317.89094098 1057.28724722 312 1062 C310.88094186 1062.91076019 309.76248112 1063.82225476 308.64453125 1064.734375 C277.15616512 1090.32457923 242.92070118 1112.17534909 207 1131 C206.06397949 1131.49064941 205.12795898 1131.98129883 204.16357422 1132.48681641 C127.0422821 1172.60658857 37.14141406 1196.90785262 -50.109375 1197.203125 C-51.51735973 1197.21014757 -52.92534414 1197.21723438 -54.33332825 1197.22438049 C-58.80555686 1197.24377075 -63.27773358 1197.24881435 -67.75 1197.25 C-68.51200085 1197.25044186 -69.27400169 1197.25088371 -70.05909348 1197.25133896 C-92.84568898 1197.25826886 -115.37119103 1196.94346817 -138 1194 C-139.41524673 1193.82570058 -140.83061576 1193.65239177 -142.24609375 1193.47998047 C-164.05716659 1190.79740902 -185.58239206 1186.90876653 -207 1182 C-207.65166138 1181.85067017 -208.30332275 1181.70134033 -208.97473145 1181.54748535 C-231.12041883 1176.43480296 -252.59046321 1169.57225421 -274 1162 C-274.99670715 1161.64778381 -274.99670715 1161.64778381 -276.0135498 1161.28845215 C-294.86451711 1154.60206348 -313.00696578 1146.72196617 -331 1138 C-332.56790283 1137.24783203 -332.56790283 1137.24783203 -334.16748047 1136.48046875 C-349.5731794 1129.07205017 -364.36644372 1120.82883774 -379 1112 C-379.91410645 1111.4519873 -380.82821289 1110.90397461 -381.77001953 1110.33935547 C-406.48298439 1095.48478743 -429.9417924 1078.57533272 -452 1060 C-453.02841846 1059.14555958 -454.05707794 1058.29140922 -455.0859375 1057.4375 C-461.90155223 1051.75391166 -468.48713431 1045.86512746 -474.97265625 1039.80859375 C-477.4814994 1037.46820262 -480.04306933 1035.19724868 -482.625 1032.9375 C-487.81992372 1028.28175288 -492.74783489 1023.36161379 -497.6875 1018.4375 C-498.49590332 1017.63368896 -499.30430664 1016.82987793 -500.13720703 1016.00170898 C-504.39729812 1011.73066763 -508.50010042 1007.38461187 -512.43383789 1002.8112793 C-514.68418097 1000.2087391 -517.0299538 997.70507963 -519.375 995.1875 C-524.49000206 989.64340173 -529.28724722 983.89094098 -534 978 C-534.91076019 976.88094186 -535.82225476 975.76248112 -536.734375 974.64453125 C-562.32457923 943.15616512 -584.17534909 908.92070118 -603 873 C-603.49064941 872.06397949 -603.98129883 871.12795898 -604.48681641 870.16357422 C-626.7436485 827.37979063 -642.76032766 781.83502399 -654 735 C-654.41161377 733.29287842 -654.41161377 733.29287842 -654.83154297 731.55126953 C-659.69942677 711.02909025 -662.94545562 690.24494813 -665.69146729 669.34552002 C-665.88658462 667.86220369 -666.08414538 666.37920493 -666.28509521 664.89666748 C-672.18789172 621.25211569 -672.16130525 572.71912011 -666.27862549 529.07421875 C-665.97635672 526.82398835 -665.68695291 524.57228335 -665.39794922 522.3203125 C-658.10304487 466.17813599 -643.97677771 410.8432283 -621 359 C-620.3507959 357.53240234 -620.3507959 357.53240234 -619.68847656 356.03515625 C-609.10526669 332.25578915 -597.44789071 309.28950981 -584 287 C-583.4519873 286.08589355 -582.90397461 285.17178711 -582.33935547 284.22998047 C-567.48532197 259.51790489 -550.57798131 236.05496129 -532 214 C-531.13390387 212.95981082 -530.26803127 211.91943551 -529.40234375 210.87890625 C-523.56729245 203.89444822 -517.53772122 197.12489277 -511.34423828 190.45751953 C-510.04980999 189.05400756 -508.77257146 187.63470117 -507.49609375 186.21484375 C-501.7737875 179.86352063 -495.84749815 173.74283461 -489.8125 167.6875 C-489.06411865 166.93452637 -488.3157373 166.18155273 -487.54467773 165.40576172 C-483.4334312 161.30585593 -479.23231559 157.37728752 -474.83325195 153.58813477 C-472.2250219 151.32864129 -469.71261528 148.97706542 -467.1875 146.625 C-461.64340173 141.50999794 -455.89094098 136.71275278 -450 132 C-448.88094186 131.08923981 -447.76248112 130.17774524 -446.64453125 129.265625 C-415.15616512 103.67542077 -380.92070118 81.82465091 -345 63 C-344.06397949 62.50935059 -343.12795898 62.01870117 -342.16357422 61.51318359 C-278.75289028 28.52589665 -208.9026444 8.25160086 -138 0 C-136.82695313 -0.14953125 -135.65390625 -0.2990625 -134.4453125 -0.453125 C-90.82626693 -5.89378015 -43.56688328 -5.69077278 0 0 Z " fill="#FDFDFD" transform="translate(669,3)"/>
<path d="M0 0 C0.66 0 1.32 0 2 0 C3.42204747 2.64094529 4.84409023 5.28189312 6.26611328 7.92285156 C7.52222082 10.25557556 8.77839465 12.58826373 10.03466797 14.92089844 C13.23330742 20.86032876 16.43080951 26.80036276 19.625 32.7421875 C25.05644156 42.84294837 30.49929944 52.93675967 36 63 C43.32933767 76.40863507 50.55618447 89.87224722 57.79101562 103.33203125 C63.8326354 114.57010432 69.88024816 125.80423815 76 137 C83.32933767 150.40863507 90.55618447 163.87224722 97.79101562 177.33203125 C103.8326354 188.57010432 109.88024816 199.80423815 116 211 C123.32933767 224.40863507 130.55618447 237.87224722 137.79101562 251.33203125 C143.8326354 262.57010432 149.88024816 273.80423815 156 285 C163.32933767 298.40863507 170.55618447 311.87224722 177.79101562 325.33203125 C183.8326354 336.57010432 189.88024816 347.80423815 196 359 C203.32933767 372.40863507 210.55618447 385.87224722 217.79101562 399.33203125 C223.8326354 410.57010432 229.88024816 421.80423815 236 433 C243.32933767 446.40863507 250.55618447 459.87224722 257.79101562 473.33203125 C263.8326354 484.57010432 269.88024816 495.80423815 276 507 C283.32933767 520.40863507 290.55618447 533.87224722 297.79101562 547.33203125 C303.8326354 558.57010432 309.88024816 569.80423815 316 581 C321.50907928 591.07856875 326.96056823 601.18754675 332.3984375 611.3046875 C334.85552042 615.87591074 337.31969076 620.44321626 339.7890625 625.0078125 C340.41055176 626.15797852 341.03204102 627.30814453 341.67236328 628.49316406 C342.84898673 630.67037326 344.02694138 632.84686384 345.20654297 635.02246094 C346.01696045 636.52341309 346.01696045 636.52341309 346.84375 638.0546875 C347.30974609 638.91562012 347.77574219 639.77655273 348.25585938 640.66357422 C350.9089947 645.7388468 353.43884718 650.87769436 356 656 C121.7 656 -112.6 656 -354 656 C-348.69366876 645.38733752 -343.33423291 634.83883478 -337.75 624.375 C-337.00086206 622.96795383 -336.25175777 621.56088975 -335.50268555 620.15380859 C-330.84687769 611.4171747 -326.14514303 602.7066738 -321.38769531 594.02490234 C-317.55740344 587.03494649 -313.77313599 580.02095706 -310 573 C-305.69209708 564.98592551 -301.36492592 556.9831622 -297 549 C-290.27529332 536.69788748 -283.63784202 524.34913685 -277 512 C-269.87977415 498.75342934 -262.74739732 485.51455899 -255.53417969 472.31835938 C-249.30243662 460.90789384 -243.15547172 449.45172819 -237 438 C-229.87977415 424.75342934 -222.74739732 411.51455899 -215.53417969 398.31835938 C-209.30243662 386.90789384 -203.15547172 375.45172819 -197 364 C-189.87977415 350.75342934 -182.74739732 337.51455899 -175.53417969 324.31835938 C-169.30243662 312.90789384 -163.15547172 301.45172819 -157 290 C-149.87977415 276.75342934 -142.74739732 263.51455899 -135.53417969 250.31835938 C-129.30243662 238.90789384 -123.15547172 227.45172819 -117 216 C-109.87977415 202.75342934 -102.74739732 189.51455899 -95.53417969 176.31835938 C-89.30243662 164.90789384 -83.15547172 153.45172819 -77 142 C-69.87977415 128.75342934 -62.74739732 115.51455899 -55.53417969 102.31835938 C-49.30243662 90.90789384 -43.15547172 79.45172819 -37 68 C-24.78193401 45.26933415 -12.45504944 22.60168387 0 0 Z " fill="#024589" transform="translate(599,182)"/>
<path d="M0 0 C-5.24424469 6.42709576 -11.09808375 12.21433561 -16.97659111 18.05175591 C-18.84229648 19.90456349 -20.70474265 21.76059408 -22.56642151 23.6174469 C-27.18938299 28.22711965 -31.81778446 32.83131769 -36.44604492 37.43566895 C-40.36472096 41.3345175 -44.28127651 45.23547351 -48.19511604 49.13917732 C-50.01810512 50.95574768 -51.84411058 52.7692468 -53.67027283 54.58262634 C-58.81609605 59.70600166 -63.91584715 64.82622946 -68.60328674 70.38063049 C-71.07401672 73.24523049 -73.79597778 75.85799851 -76.5 78.5 C-80.64386848 82.59203331 -84.62297302 86.73372378 -88.39453125 91.17578125 C-90.73551716 93.8357336 -93.26437087 96.2897374 -95.8125 98.75 C-97.71026547 100.70198734 -99.49731452 102.69516319 -101.28125 104.75 C-105.51841649 109.62861387 -109.95150214 114.309627 -114.39453125 119 C-118.16263118 122.99434196 -121.83305102 127.05379722 -125.43261719 131.20068359 C-127.37968954 133.43587413 -129.37494469 135.62470003 -131.375 137.8125 C-134.48528851 141.25378205 -137.46478312 144.76321298 -140.375 148.375 C-143.61952732 152.3882655 -146.98749324 156.22413126 -150.5 160 C-154.7339621 164.55594473 -158.72931665 169.25271159 -162.62890625 174.09765625 C-165.31830412 177.38962103 -168.09148901 180.60024497 -170.875 183.8125 C-175.38706974 189.03320066 -179.70255319 194.37316862 -183.9296875 199.82617188 C-186.97961921 203.74563999 -190.13544398 207.54888956 -193.375 211.3125 C-198.78737045 217.61996709 -203.80668516 224.20107442 -208.82421875 230.82421875 C-211.6108535 234.50097039 -214.44853626 238.13335197 -217.3125 241.75 C-227.33784396 254.45026339 -237.21252312 267.28214385 -246.53125 280.51171875 C-248.3209426 283.05223418 -250.13733311 285.57142499 -251.96875 288.08203125 C-260.57314094 299.88127917 -268.84621248 311.88563523 -277 324 C-277.72413086 325.07523926 -278.44826172 326.15047852 -279.19433594 327.25830078 C-312.02796073 376.05937023 -342.30581815 426.48042389 -368.95123291 478.93823242 C-370.04837362 481.09509752 -371.14960621 483.24983849 -372.25146484 485.40429688 C-383.94031198 508.28206176 -394.87484665 531.38868959 -405 555 C-405.31455139 555.73093872 -405.62910278 556.46187744 -405.95318604 557.21496582 C-428.02194471 608.50915329 -447.07869978 661.19922783 -461.27001953 715.22705078 C-461.90022209 717.62097742 -462.53835798 720.01243553 -463.18359375 722.40234375 C-464.95723723 728.97931743 -466.67672441 735.56751091 -468.30297852 742.18261719 C-469.31454253 746.29331011 -470.36585366 750.39013165 -471.45703125 754.48046875 C-486.48050205 811.58683264 -494.5579517 870.38778967 -501 929 C-504.13553889 926.09026799 -506.29656082 923.15450149 -508.46875 919.4765625 C-509.11618164 918.38448486 -509.76361328 917.29240723 -510.43066406 916.16723633 C-511.12097327 914.98680099 -511.81073901 913.8060477 -512.5 912.625 C-513.21840737 911.4019268 -513.93683205 910.17886377 -514.65527344 908.95581055 C-546.09286378 855.26957003 -569.47415899 798.52828692 -584 738 C-584.41161377 736.29287842 -584.41161377 736.29287842 -584.83154297 734.55126953 C-589.69942677 714.02909025 -592.94545562 693.24494813 -595.69146729 672.34552002 C-595.88658462 670.86220369 -596.08414538 669.37920493 -596.28509521 667.89666748 C-602.18789172 624.25211569 -602.16130525 575.71912011 -596.27862549 532.07421875 C-595.97635672 529.82398835 -595.68695291 527.57228335 -595.39794922 525.3203125 C-588.10304487 469.17813599 -573.97677771 413.8432283 -551 362 C-550.3507959 360.53240234 -550.3507959 360.53240234 -549.68847656 359.03515625 C-539.10526669 335.25578915 -527.44789071 312.28950981 -514 290 C-513.4519873 289.08589355 -512.90397461 288.17178711 -512.33935547 287.22998047 C-497.48532197 262.51790489 -480.57798131 239.05496129 -462 217 C-461.13390387 215.95981082 -460.26803127 214.91943551 -459.40234375 213.87890625 C-453.56729245 206.89444822 -447.53772122 200.12489277 -441.34423828 193.45751953 C-440.04980999 192.05400756 -438.77257146 190.63470117 -437.49609375 189.21484375 C-431.7737875 182.86352063 -425.84749815 176.74283461 -419.8125 170.6875 C-419.06411865 169.93452637 -418.3157373 169.18155273 -417.54467773 168.40576172 C-413.4334312 164.30585593 -409.23231559 160.37728752 -404.83325195 156.58813477 C-402.2250219 154.32864129 -399.71261528 151.97706542 -397.1875 149.625 C-391.64340173 144.50999794 -385.89094098 139.71275278 -380 135 C-378.88094186 134.08923981 -377.76248112 133.17774524 -376.64453125 132.265625 C-345.15616512 106.67542077 -310.92070118 84.82465091 -275 66 C-274.06397949 65.50935059 -273.12795898 65.01870117 -272.16357422 64.51318359 C-192.47639405 23.05859401 -99.96899107 -0.95697898 0 0 Z " fill="#F78D20" transform="translate(599,0)"/>
<path d="M0 0 C93.25645142 -1.79463219 185.71495957 21.46866603 269 63 C270.0297998 63.51288574 271.05959961 64.02577148 272.12060547 64.55419922 C311.41932336 84.25574362 348.2980658 108.77524691 382 137 C382.75676025 137.62938477 382.75676025 137.62938477 383.52880859 138.27148438 C391.0571868 144.53560714 398.36754315 150.99079033 405.54248047 157.65576172 C406.94599244 158.95019001 408.36529883 160.22742854 409.78515625 161.50390625 C416.13647937 167.2262125 422.25716539 173.15250185 428.3125 179.1875 C429.06547363 179.93588135 429.81844727 180.6842627 430.59423828 181.45532227 C434.69414407 185.5665688 438.62271248 189.76768441 442.41186523 194.16674805 C444.67135871 196.7749781 447.02293458 199.28738472 449.375 201.8125 C454.49000206 207.35659827 459.28724722 213.10905902 464 219 C464.91076019 220.11905814 465.82225476 221.23751888 466.734375 222.35546875 C492.32457923 253.84383488 514.17534909 288.07929882 533 324 C533.49064941 324.93602051 533.98129883 325.87204102 534.48681641 326.83642578 C556.7436485 369.62020937 572.76032766 415.16497601 584 462 C584.27440918 463.13808105 584.54881836 464.27616211 584.83154297 465.44873047 C589.699097 485.96951949 592.9468918 506.75297666 595.69146729 527.65124512 C595.88676696 529.13799532 596.08435416 530.62444835 596.28509521 532.11047363 C602.23711328 576.31886005 601.79660399 624.80790206 596 669 C595.82050118 670.4352858 595.64181873 671.87067389 595.46386719 673.30615234 C586.652634 743.70018601 565.62932619 810.58240628 534 874 C533.52062988 874.96276855 533.04125977 875.92553711 532.54736328 876.91748047 C523.7142434 894.5296464 513.47812647 911.32663146 503 928 C501.10655214 924.74475966 500.62107938 922.01930306 500.2890625 918.28515625 C500.18086182 917.13885742 500.07266113 915.99255859 499.96118164 914.81152344 C499.8502417 913.5743457 499.73930176 912.33716797 499.625 911.0625 C499.36977613 908.42270877 499.11191089 905.783411 498.84765625 903.14453125 C498.74634651 902.13089005 498.74634651 902.13089005 498.64299011 901.09677124 C496.59346567 880.97158195 493.35973918 860.94285179 490 841 C489.83951172 840.04290131 489.83951172 840.04290131 489.67578125 839.06646729 C486.53137902 820.33050595 483.05899709 801.73324399 478.75 783.22363281 C477.99092664 779.9610011 477.24409599 776.69576506 476.5 773.4296875 C475.01985291 766.94844465 473.51573126 760.47300639 472 754 C471.74718262 752.91879883 471.49436523 751.83759766 471.23388672 750.72363281 C468.10721063 737.39505933 464.82368839 724.14600973 461 711 C460.58693604 709.56793213 460.58693604 709.56793213 460.16552734 708.10693359 C455.01156308 690.27828249 449.47312803 672.5817505 443.64849854 654.96234131 C443.22055825 653.66740407 442.79341712 652.37220242 442.36712646 651.07672119 C430.49023322 614.98848237 416.37284008 579.73293854 401 545 C400.69358582 544.30573914 400.38717163 543.61147827 400.07147217 542.8961792 C385.62307745 510.18356824 370.02996835 477.7823216 352.46777344 446.61914062 C350.78472941 443.61586446 349.13001899 440.59778871 347.4765625 437.578125 C339.01258356 422.15781336 330.16245109 407.01435593 321 392 C320.35949707 390.94458008 319.71899414 389.88916016 319.05908203 388.80175781 C309.70899121 373.39750064 300.05612909 358.21741735 290.11132812 343.19042969 C288.01202964 340.018178 285.9199907 336.84121882 283.828125 333.6640625 C276.79522191 323.0151225 269.61090781 312.51729505 262.07421875 302.21875 C259.01496678 298.0381901 256.03511668 293.80488654 253.0625 289.5625 C242.63227892 274.73208324 231.74908676 260.27404831 220.56494141 246.00585938 C218.33348357 243.14569438 216.13677176 240.25998977 213.9375 237.375 C209.68935296 231.83848049 205.30771347 226.42034473 200.89086914 221.01782227 C197.33041449 216.65743014 193.83244683 212.25485565 190.375 207.8125 C185.92747865 202.10819312 181.30637772 196.57386323 176.609375 191.07421875 C174.23730965 188.29266912 171.92507288 185.46651339 169.625 182.625 C164.9814724 176.9219866 160.16259591 171.3801402 155.33203125 165.8359375 C152.65766167 162.7646458 150.00997371 159.67185751 147.37109375 156.57006836 C142.19022343 150.48372935 136.88320533 144.54001333 131.45703125 138.671875 C128.82974755 135.81486061 126.27110309 132.90700498 123.7265625 129.9765625 C116.63132538 121.85396072 109.30160349 113.93674128 102 106 C101.53223145 105.49098145 101.06446289 104.98196289 100.58251953 104.45751953 C97.06410325 100.62989811 93.53572946 96.81163296 90 93 C89.40638672 92.35981934 88.81277344 91.71963867 88.20117188 91.06005859 C80.87244891 83.16773467 73.48577438 75.37115888 65.78125 67.84375 C63.79056815 65.80833373 61.9652933 63.7999317 60.13452148 61.63452148 C55.31254277 56.10509219 50.09211549 50.98046329 44.88891792 45.81375313 C43.0334583 43.97118726 41.18125528 42.12540109 39.32981873 40.27879333 C35.41020186 36.37052295 31.48662665 32.46624157 27.5625 28.5625 C22.9890669 24.01266348 18.41726793 19.46120909 13.84962273 14.90556145 C12.02128389 13.08372211 10.18997151 11.26490759 8.35853577 9.44618225 C7.24872489 8.34000034 6.13905217 7.2336798 5.02954102 6.12719727 C4.51689697 5.61971954 4.00425293 5.11224182 3.47607422 4.58938599 C2.29825605 3.4117479 1.14602077 2.20860394 0 1 C0 0.67 0 0.34 0 0 Z " fill="#F78D20" transform="translate(601,0)"/>
<path d="M0 0 C6.87813706 0.65877111 13.54644571 1.79992394 20.3125 3.1875 C21.93406006 3.51524414 21.93406006 3.51524414 23.58837891 3.84960938 C31.69858003 5.49977209 39.78721497 7.24387605 47.875 9 C58.26814851 11.25646418 68.683332 13.31024696 79.15380859 15.17578125 C85.45118248 16.30600205 91.70954595 17.56254361 97.96484375 18.90234375 C108.43714903 21.13769744 118.96019144 23.05090325 129.5 24.9375 C133.40513919 25.63956448 137.31001571 26.34308225 141.21484375 27.046875 C142.16137314 27.21720749 143.10790253 27.38753998 144.08311462 27.56303406 C149.27068659 28.4988069 154.45256634 29.45709874 159.62890625 30.453125 C173.48783092 33.11802719 187.37006513 35.30002222 201.34985352 37.21362305 C208.48966199 38.1936589 215.60338849 39.24816156 222.70703125 40.46484375 C232.97899672 42.21414898 243.29267301 43.59773703 253.625 44.9375 C254.61534241 45.06661774 255.60568481 45.19573547 256.6260376 45.32876587 C274.77813626 47.68568018 292.95206315 49.65509097 311.17645264 51.35641479 C316.06855455 51.81320552 320.95653514 52.29820797 325.84375 52.8046875 C342.27040564 54.47805809 358.70758084 55.62638105 375.1875 56.625 C376.71597565 56.7187944 376.71597565 56.7187944 378.27532959 56.81448364 C405.01749683 58.43943142 431.73241957 59.15956102 458.52230787 59.1343255 C462.19013496 59.13171539 465.85796012 59.13416309 469.52578735 59.13571167 C475.68565327 59.1375113 481.84550704 59.13518847 488.00537109 59.13037109 C494.23389473 59.12555453 500.46239436 59.12554264 506.69091797 59.13037109 C550.38225085 59.163188 593.96967721 59.03076858 637.58538818 56.19366455 C640.34775557 56.01602061 643.11059807 55.84647408 645.87346554 55.67681503 C660.46981859 54.77852273 675.03503054 53.7291373 689.58422852 52.24252319 C693.73472848 51.82584781 697.88900978 51.45063867 702.04296875 51.0703125 C742.43095198 47.37759951 742.43095198 47.37759951 782.578125 41.71484375 C788.52453366 40.72873549 794.50089232 39.95549086 800.47753906 39.17749023 C818.98542522 36.72876004 837.36702172 33.42045944 855.75 30.1875 C857.01145844 29.9659021 858.27291687 29.7443042 859.57260132 29.51599121 C887.83822828 24.54474323 915.96600068 19.15777755 944 13 C945.46693702 12.67909582 946.93389765 12.35829954 948.40087891 12.03759766 C971.46497548 7.04236292 971.46497548 7.04236292 994.36914062 1.37084961 C997.74265268 0.48688741 1000.47874818 0 1004 0 C1002.40687262 4.76107032 999.77357716 8.46328765 996.875 12.5 C996.35510498 13.22977051 995.83520996 13.95954102 995.29956055 14.71142578 C985.66087616 28.14050907 975.64925521 41.35400944 965 54 C964.14555958 55.02841846 963.29140922 56.05707794 962.4375 57.0859375 C956.32582141 64.41534419 949.96132307 71.468086 943.44677734 78.43994141 C941.20910053 80.85282613 939.01628049 83.3061708 936.8125 85.75 C932.10029542 90.89370006 927.23618574 95.87118962 922.3125 100.8125 C921.26122925 101.87065918 921.26122925 101.87065918 920.1887207 102.95019531 C916.2022121 106.92498027 912.11395166 110.71817381 907.85083008 114.39428711 C905.23802246 116.66106401 902.71864106 119.01732176 900.1875 121.375 C894.64340173 126.49000206 888.89094098 131.28724722 883 136 C881.88094186 136.91076019 880.76248112 137.82225476 879.64453125 138.734375 C848.15616512 164.32457923 813.92070118 186.17534909 778 205 C777.06397949 205.49064941 776.12795898 205.98129883 775.16357422 206.48681641 C698.0422821 246.60658857 608.14141406 270.90785262 520.890625 271.203125 C519.48264027 271.21014757 518.07465586 271.21723438 516.66667175 271.22438049 C512.19444314 271.24377075 507.72226642 271.24881435 503.25 271.25 C502.10699873 271.25066278 502.10699873 271.25066278 500.94090652 271.25133896 C478.15431102 271.25826886 455.62880897 270.94346817 433 268 C431.58475327 267.82570058 430.16938424 267.65239177 428.75390625 267.47998047 C406.94283341 264.79740902 385.41760794 260.90876653 364 256 C363.02250793 255.77600525 363.02250793 255.77600525 362.02526855 255.54748535 C339.87958117 250.43480296 318.40953679 243.57225421 297 236 C296.33552856 235.76518921 295.67105713 235.53037842 294.9864502 235.28845215 C276.13548289 228.60206348 257.99303422 220.72196617 240 212 C238.95473145 211.49855469 237.90946289 210.99710938 236.83251953 210.48046875 C221.4268206 203.07205017 206.63355628 194.82883774 192 186 C191.08589355 185.4519873 190.17178711 184.90397461 189.22998047 184.33935547 C164.51701561 169.48478743 141.0582076 152.57533272 119 134 C117.97158154 133.14555958 116.94292206 132.29140922 115.9140625 131.4375 C109.09844777 125.75391166 102.51286569 119.86512746 96.02734375 113.80859375 C93.5185006 111.46820262 90.95693067 109.19724868 88.375 106.9375 C83.18007628 102.28175288 78.25216511 97.36161379 73.3125 92.4375 C72.09989502 91.23178345 72.09989502 91.23178345 70.86279297 90.00170898 C66.60270188 85.73066763 62.49989958 81.38461187 58.56616211 76.8112793 C56.31581903 74.2087391 53.9700462 71.70507963 51.625 69.1875 C46.50999794 63.64340173 41.71275278 57.89094098 37 52 C36.08923981 50.88094186 35.17774524 49.76248112 34.265625 48.64453125 C23.8421263 35.81534081 14.05418174 22.51223012 4.625 8.9375 C4.15441162 8.26468994 3.68382324 7.59187988 3.19897461 6.89868164 C0 2.2397152 0 2.2397152 0 0 Z " fill="#F78D20" transform="translate(98,929)"/>
</svg>
